# xmcd
# 
# Track frame offsets:
#     150
#     13730
#     35690
#     57375
#     75200
#     95570
#     118807
#     128385
#     143607
#     162190
# 
# Disc length: 2460
# 
# Revision: 2
# Processed by: cddbd v1.5.2PL0 Copyright (c) Steve Scherf et al.
# Submitted via: BonkEnc v1.0.5
# 
DISCID=77099a0a
DTITLE=Geoff and Maria Muldaur - Sweet Potatoes
DYEAR=0
DGENRE=Blues
TTITLE0=Blue Railroad Train
TTITLE1=Havana Moon
TTITLE2=Lazybones
TTITLE3=Cordelia
TTITLE4=Dardanella
TTITLE5=I'm Rich
TTITLE6=Sweet Potatoes
TTITLE7=Kneein' Me
TTITLE8=Lover Man (Oh Where Can You Be)
TTITLE9=Hard Time Killin' Floor
EXTD=NACD-3218
EXTT0=
EXTT1=
EXTT2=
EXTT3=
EXTT4=
EXTT5=
EXTT6=
EXTT7=
EXTT8=
EXTT9=
PLAYORDER=
